<?xml version="1.0" encoding="UTF-8"?>
<svg version="1.1" xmlns="http://www.w3.org/2000/svg" width="1280" height="1280">
<path d="M0 0 C1.16917969 -0.00128906 2.33835937 -0.00257813 3.54296875 -0.00390625 C4.76113281 -0.00003906 5.97929688 0.00382812 7.234375 0.0078125 C8.43707031 0.00394531 9.63976562 0.00007813 10.87890625 -0.00390625 C17.00861906 0.0028223 22.92593889 0.1833561 28.984375 1.1328125 C28.48790185 7.0822088 27.21575192 11.63610089 24.66796875 17.0078125 C24.33322037 17.73540771 23.99847198 18.46300293 23.65357971 19.21264648 C22.58659816 21.52428279 21.50430542 23.82837701 20.421875 26.1328125 C19.72234981 27.64669336 19.02377506 29.16101376 18.32617188 30.67578125 C14.63415805 38.65816011 10.80289443 46.55954949 6.84196472 54.41163635 C3.66152762 60.73193357 0.6835434 67.13908954 -2.265625 73.5703125 C-3.39319883 76.01495178 -4.52160341 78.45917105 -5.65234375 80.90234375 C-5.93399887 81.51092224 -6.21565399 82.11950073 -6.50584412 82.746521 C-9.780678 89.80592588 -13.16922499 96.80983154 -16.55664062 103.81567383 C-20.22242911 111.42024793 -23.75816796 119.07913113 -27.265625 126.7578125 C-30.41930204 133.65575417 -33.60773404 140.48666946 -37.265625 147.1328125 C-40.53274531 153.0797815 -43.30820364 159.14990648 -46.01660156 165.36865234 C-49.10072239 172.4187174 -52.50495777 179.27968812 -55.99804688 186.13427734 C-57.76612954 189.60681205 -59.51805536 193.08741682 -61.265625 196.5703125 C-61.60158691 197.23981934 -61.93754883 197.90932617 -62.28369141 198.59912109 C-64.37952803 202.79814814 -66.38003707 207.02162574 -68.2265625 211.3359375 C-69.09083326 213.30407884 -70.04889586 215.21325685 -71.015625 217.1328125 C-56.00219235 208.22270755 -41.15319968 199.12387938 -26.45947266 189.69482422 C-20.99129392 186.19977851 -15.47680902 182.77844561 -9.96728516 179.34912109 C-7.86061869 178.03620987 -5.7562538 176.71966725 -3.65234375 175.40234375 C-2.56735596 174.72316895 -2.56735596 174.72316895 -1.46044922 174.03027344 C-0.08300305 173.16791076 1.29428674 172.30529821 2.67138672 171.44238281 C3.89444324 170.67722093 5.12020485 169.91635932 6.34912109 169.16064453 C7.80424189 168.24603441 9.22002288 167.26950165 10.62890625 166.28515625 C12.984375 165.1328125 12.984375 165.1328125 15.50390625 165.25390625 C18.27802817 166.23686284 20.28995769 167.46694605 22.671875 169.1953125 C23.52910156 169.81664062 24.38632812 170.43796875 25.26953125 171.078125 C29.58046509 174.3407886 33.80224961 177.70702893 37.984375 181.1328125 C36.59379597 185.30454959 33.64788421 186.65915802 30.109375 188.9453125 C29.18125 189.5650293 29.18125 189.5650293 28.234375 190.19726562 C24.45559892 192.67947784 20.59612014 194.91516337 16.61328125 197.0546875 C11.17219701 199.98468231 5.98276228 203.21374333 0.796875 206.5703125 C-1.13616715 207.81075583 -3.06978121 209.05030831 -5.00390625 210.2890625 C-5.99342285 210.92328125 -6.98293945 211.5575 -8.00244141 212.2109375 C-12.94483356 215.3633043 -17.91679337 218.4678718 -22.890625 221.5703125 C-23.88078613 222.1885791 -24.87094727 222.8068457 -25.89111328 223.44384766 C-31.03720914 226.65568397 -36.18717205 229.86122515 -41.33984375 233.0625 C-55.44358471 241.82638989 -55.44358471 241.82638989 -69.28930664 250.98950195 C-72.54471009 253.20515677 -75.85652042 255.21232916 -79.28540039 257.13891602 C-82.07524471 258.74149203 -84.75689465 260.50348255 -87.453125 262.2578125 C-92.50905736 265.53202042 -97.5901817 268.76086849 -102.703125 271.9453125 C-108.7185508 275.69204657 -114.71517323 279.46732886 -120.703125 283.2578125 C-128.10642868 287.93965252 -135.52545205 292.5906668 -143.015625 297.1328125 C-143.75554688 297.5865625 -144.49546875 298.0403125 -145.2578125 298.5078125 C-148.08225777 300.19544785 -149.66125889 301.1328125 -153.015625 301.1328125 C-152.46827702 296.22167648 -150.86275835 292.38426372 -148.578125 288.0703125 C-147.84823371 286.65338592 -147.12047721 285.23535822 -146.39453125 283.81640625 C-145.81469482 282.68501221 -145.81469482 282.68501221 -145.22314453 281.53076172 C-143.07677142 277.26839279 -141.05226584 272.94839299 -139.015625 268.6328125 C-136.15971476 262.60079857 -133.27534069 256.58962509 -130.265625 250.6328125 C-118.97635897 228.23594005 -108.40142044 205.49479716 -97.90332031 182.71972656 C-94.43984992 175.2126458 -90.86316273 167.7761942 -87.13769531 160.39599609 C-84.08511127 154.32748247 -81.18513415 148.19120645 -78.29467773 142.04418945 C-76.16131048 137.518047 -73.97411312 133.02960713 -71.703125 128.5703125 C-68.32159467 121.87802805 -65.2022767 115.07348502 -62.078125 108.2578125 C-58.84488872 101.20451599 -55.60851458 94.16785805 -52.078125 87.2578125 C-48.47598075 80.19711529 -45.14932692 73.01681956 -41.828125 65.8203125 C-36.8632166 55.0631316 -31.79615601 44.36150033 -26.63256836 33.69775391 C-24.16319372 28.59707843 -21.7050931 23.49293331 -19.3046875 18.359375 C-18.6873877 17.04078491 -18.6873877 17.04078491 -18.05761719 15.69555664 C-17.30691817 14.08720756 -16.55986998 12.47714673 -15.81738281 10.86499023 C-12.44372665 3.6426896 -12.44372665 3.6426896 -10.015625 1.1328125 C-6.68590461 -0.0087924 -3.49763679 0.00372429 0 0 Z " fill="#F0F1F3" transform="translate(777.015625,480.8671875)"/>
<path d="M0 0 C1.12535156 -0.00128906 2.25070312 -0.00257813 3.41015625 -0.00390625 C4.57675781 -0.00003906 5.74335937 0.00382812 6.9453125 0.0078125 C8.10417969 0.00394531 9.26304687 0.00007813 10.45703125 -0.00390625 C16.09774743 0.00254028 21.51706838 0.11282889 27.0703125 1.1328125 C28.25966012 4.70085536 27.83431133 5.35793963 26.40234375 8.7109375 C26.02674316 9.59974609 25.65114258 10.48855469 25.26416016 11.40429688 C24.87019043 12.30470703 24.4762207 13.20511719 24.0703125 14.1328125 C23.71888184 14.94556641 23.36745117 15.75832031 23.00537109 16.59570312 C21.93939532 19.0325029 20.85297223 21.45899628 19.7578125 23.8828125 C19.36682373 24.75043213 18.97583496 25.61805176 18.57299805 26.51196289 C15.81614766 32.58804541 12.92775882 38.57223838 9.87109375 44.50390625 C7.10748639 49.9675613 4.61885585 55.56682521 2.0703125 61.1328125 C-4.39288709 75.2408404 -10.86558304 89.31430336 -17.9296875 103.1328125 C-22.53342276 112.14807935 -26.88645707 121.20489231 -30.92749023 130.48730469 C-33.36096337 136.0124611 -36.09182277 141.30281316 -39 146.59008789 C-41.40217849 151.00762348 -43.46814351 155.50434994 -45.4296875 160.1328125 C-47.64995792 165.36995333 -50.06081233 170.4001235 -52.8046875 175.3828125 C-55.97883951 181.15757689 -58.7634102 187.04481097 -61.4296875 193.0703125 C-64.04139864 198.96888226 -66.69529717 204.81851728 -69.6171875 210.5703125 C-73.38996202 218.00826186 -77.0506123 225.49891004 -80.6796875 233.0078125 C-80.97951538 233.6280127 -81.27934326 234.24821289 -81.58825684 234.88720703 C-86.4707914 244.99911215 -91.20660066 255.17226685 -95.8840332 265.38085938 C-98.78182012 271.69196348 -101.78667135 277.91328708 -104.9453125 284.09765625 C-106.73731973 287.68069041 -108.420597 291.31317791 -110.1015625 294.94921875 C-110.53161339 295.87933777 -110.53161339 295.87933777 -110.97035217 296.82824707 C-112.42322112 299.97460481 -113.87056196 303.12340951 -115.31225586 306.27490234 C-116.82899936 309.57205223 -118.36870073 312.85640834 -119.9296875 316.1328125 C-120.29529785 316.91414551 -120.6609082 317.69547852 -121.03759766 318.50048828 C-122.01171875 320.41796875 -122.01171875 320.41796875 -123.9296875 323.1328125 C-127.9888078 324.3753161 -132.05974436 324.26193437 -136.27734375 324.265625 C-136.97105576 324.26658173 -137.66476776 324.26753845 -138.37950134 324.26852417 C-139.83934622 324.26920188 -141.29919418 324.26737622 -142.7590332 324.26318359 C-144.98851295 324.25782134 -147.21779202 324.26314659 -149.44726562 324.26953125 C-150.86979211 324.26887055 -152.29231847 324.26758957 -153.71484375 324.265625 C-155.00269775 324.26449707 -156.29055176 324.26336914 -157.61743164 324.26220703 C-162.72317715 324.06274915 -162.72317715 324.06274915 -164.9296875 323.1328125 C-166.15242932 319.46458704 -165.63496721 318.91010114 -163.97265625 315.546875 C-163.52438477 314.62648438 -163.07611328 313.70609375 -162.61425781 312.7578125 C-162.12022461 311.7678125 -161.62619141 310.7778125 -161.1171875 309.7578125 C-160.0947351 307.66682163 -159.07260664 305.57567234 -158.05078125 303.484375 C-157.5285498 302.42379883 -157.00631836 301.36322266 -156.46826172 300.27050781 C-154.16648057 295.57636447 -151.92164792 290.85574179 -149.6796875 286.1328125 C-149.26565674 285.26390381 -148.85162598 284.39499512 -148.42504883 283.49975586 C-146.02208749 278.45329699 -143.65172771 273.39296957 -141.3046875 268.3203125 C-138.97940588 263.3111778 -136.55286182 258.36911777 -134.0546875 253.4453125 C-130.99927482 247.41692536 -128.17316547 241.30901659 -125.4296875 235.1328125 C-121.51528476 226.32896335 -117.31067671 217.7121591 -112.9296875 209.1328125 C-108.70875526 200.86483635 -104.63729144 192.58306518 -100.9296875 184.0703125 C-98.30776998 178.05782065 -95.46191851 172.28007893 -92.29003906 166.5324707 C-88.61651527 159.75487244 -85.41228533 152.75281233 -82.1796875 145.7578125 C-81.89928619 145.15148987 -81.61888489 144.54516724 -81.32998657 143.92047119 C-78.76604755 138.36935762 -76.21946254 132.81213888 -73.7578125 127.21484375 C-72.10457109 123.47492043 -70.2962834 119.83435583 -68.4296875 116.1953125 C-64.72938152 108.9103351 -61.32136506 101.50311519 -57.9296875 94.0703125 C-54.67433018 86.94264899 -51.39950368 79.8726787 -47.6171875 73.0078125 C-44.93863379 68.13671071 -42.59870402 63.2422684 -40.4296875 58.1328125 C-37.99697013 52.4021682 -35.28645105 46.94802011 -32.26611328 41.49584961 C-28.18073525 33.98205338 -24.76305822 26.14191684 -21.31762695 18.31884766 C-15.34286268 5.02492213 -15.34286268 5.02492213 -10.9296875 1.1328125 C-7.30044483 0.04013317 -3.77228759 0.00417751 0 0 Z " fill="#F3F4F6" transform="translate(667.9296875,480.8671875)"/>
<path d="M0 0 C-1.35838512 7.58168441 -3.99668306 14.03982059 -7.25 21 C-7.71535156 22.02867187 -8.18070313 23.05734375 -8.66015625 24.1171875 C-16.2482979 40.54770909 -25.94413167 49.25792892 -41.625 58.0625 C-45.06783145 60.03894028 -48.32294462 62.19187243 -51.59375 64.4375 C-54.02237356 66.01452829 -56.5113341 67.45057034 -59.03173828 68.875 C-63.66380692 71.522553 -68.21418912 74.31159824 -72.78442383 77.06396484 C-77.41941754 79.85381372 -82.06068306 82.6316218 -86.71875 85.3828125 C-87.63503174 85.92615234 -88.55131348 86.46949219 -89.49536133 87.02929688 C-91.26623057 88.07893879 -93.03944927 89.12462871 -94.81518555 90.16601562 C-95.612229 90.63974609 -96.40927246 91.11347656 -97.23046875 91.6015625 C-97.93582764 92.01744629 -98.64118652 92.43333008 -99.36791992 92.86181641 C-101.15737718 93.91656341 -101.15737718 93.91656341 -102 96 C-101.28199219 96.25394531 -100.56398438 96.50789062 -99.82421875 96.76953125 C-96.78505509 98.0936482 -94.45988722 99.6970715 -91.8125 101.6875 C-88.29981081 104.29625717 -84.78097078 106.87854588 -81.1875 109.375 C-80.38828125 109.93832031 -79.5890625 110.50164062 -78.765625 111.08203125 C-76.62493215 112.56660779 -74.47017203 114.0138036 -72.296875 115.44921875 C-71.01020067 116.31999343 -69.72374129 117.1910858 -68.4375 118.0625 C-67.50683716 118.66167236 -67.50683716 118.66167236 -66.55737305 119.27294922 C-63.60588609 121.29774426 -62.13858229 122.58154645 -61 126.01953125 C-61 129.0606301 -61.35076517 130.85939345 -62.5625 133.625 C-62.93246094 134.47320313 -63.30242187 135.32140625 -63.68359375 136.1953125 C-70.30708661 150.30708661 -70.30708661 150.30708661 -73 153 C-77.10588432 153.52430032 -79.06935453 152.64722134 -82.3125 150.1875 C-86.67566938 146.9732125 -91.08491641 143.86369299 -95.5625 140.8125 C-101.96387374 136.4263033 -108.31130021 131.96793027 -114.64282227 127.48168945 C-118.74965119 124.57610447 -122.87281434 121.69730092 -127.02319336 118.85424805 C-128.33290244 117.95700755 -129.64103226 117.05745711 -130.94750977 116.15551758 C-134.52450173 113.68646316 -138.12140872 111.2540602 -141.74609375 108.85546875 C-143.31016671 107.79988042 -144.87397519 106.74390008 -146.4375 105.6875 C-147.17806641 105.20796875 -147.91863281 104.7284375 -148.68164062 104.234375 C-153.78256371 100.75011155 -153.78256371 100.75011155 -154.97265625 96.64453125 C-154.98167969 95.77183594 -154.99070312 94.89914062 -155 94 C-148.06367673 88.66789246 -140.87872482 84.00477551 -133.39550781 79.49316406 C-127.16362518 75.73046962 -121.00866468 71.85808504 -114.875 67.9375 C-108.46019429 63.83721206 -102.03334737 59.76126713 -95.5625 55.75 C-90.36019361 52.52500505 -85.25653766 49.18028204 -80.1875 45.75 C-75.18672537 42.36817186 -70.14814125 39.28651403 -64.7578125 36.546875 C-62.40281605 35.22594215 -60.21227111 33.8285528 -57.9765625 32.3203125 C-52.17716602 28.41001328 -46.21534381 24.77512296 -40.25 21.125 C-39.15945313 20.45597656 -38.06890625 19.78695312 -36.9453125 19.09765625 C-34.74499978 17.74781901 -32.5443982 16.39845251 -30.34350586 15.04956055 C-26.90126427 12.93947525 -23.45957117 10.82851611 -20.01953125 8.71484375 C-18.48582886 7.77306274 -18.48582886 7.77306274 -16.92114258 6.81225586 C-13.29336339 4.56160772 -9.7017433 2.25829877 -6.12109375 -0.06640625 C-3.55935564 -1.19394844 -2.60766902 -0.77967565 0 0 Z " fill="#F5F6F8" transform="translate(606,549)"/>
<path d="M0 0 C0.99 0 1.98 0 3 0 C1.72278474 4.99275057 -0.17330957 7.57611908 -4 11 C-3.52269162 9.5410574 -3.04308958 8.08286504 -2.5625 6.625 C-2.29566406 5.81289063 -2.02882813 5.00078125 -1.75390625 4.1640625 C-1 2 -1 2 0 0 Z " fill="#F6F7F8" transform="translate(637,751)"/>
<path d="M0 0 C3.63 0.33 7.26 0.66 11 1 C11 1.66 11 2.32 11 3 C8.03 3 5.06 3 2 3 C2 2.34 2 1.68 2 1 C1.34 0.67 0.68 0.34 0 0 Z " fill="#FBFCFB" transform="translate(793,481)"/>
<path d="" fill="#FFFFFF" transform="translate(0,0)"/>
</svg>
